<mxfile host="app.diagrams.net" agent="Mozilla/5.0 (Windows NT 10.0; Win64; x64) AppleWebKit/537.36 (KHTML, like Gecko) Chrome/129.0.0.0 Safari/537.36" version="24.7.16">
  <diagram name="第 1 页" id="3ccgbEgvmrZUkAs4_G65">
    <mxGraphModel dx="2389" dy="810" grid="1" gridSize="10" guides="1" tooltips="1" connect="1" arrows="1" fold="1" page="1" pageScale="1" pageWidth="827" pageHeight="1169" math="0" shadow="0">
      <root>
        <mxCell id="0" />
        <mxCell id="1" parent="0" />
        <mxCell id="tXJnp-GCiFo_NJ_1QGvf-68" value="" style="endArrow=classic;html=1;rounded=0;exitX=1;exitY=0.5;exitDx=0;exitDy=0;entryX=0.5;entryY=0;entryDx=0;entryDy=0;" edge="1" parent="1" source="tXJnp-GCiFo_NJ_1QGvf-14" target="tXJnp-GCiFo_NJ_1QGvf-63">
          <mxGeometry width="50" height="50" relative="1" as="geometry">
            <mxPoint x="370" y="470" as="sourcePoint" />
            <mxPoint x="440" y="510" as="targetPoint" />
          </mxGeometry>
        </mxCell>
        <mxCell id="tXJnp-GCiFo_NJ_1QGvf-1" value="sales fact table" style="swimlane;fontStyle=0;childLayout=stackLayout;horizontal=1;startSize=26;fillColor=none;horizontalStack=0;resizeParent=1;resizeParentMax=0;resizeLast=0;collapsible=1;marginBottom=0;html=1;" vertex="1" parent="1">
          <mxGeometry x="260" y="255" width="140" height="182" as="geometry" />
        </mxCell>
        <mxCell id="tXJnp-GCiFo_NJ_1QGvf-2" value="date_key" style="text;strokeColor=none;fillColor=none;align=left;verticalAlign=top;spacingLeft=4;spacingRight=4;overflow=hidden;rotatable=0;points=[[0,0.5],[1,0.5]];portConstraint=eastwest;whiteSpace=wrap;html=1;" vertex="1" parent="tXJnp-GCiFo_NJ_1QGvf-1">
          <mxGeometry y="26" width="140" height="26" as="geometry" />
        </mxCell>
        <mxCell id="tXJnp-GCiFo_NJ_1QGvf-3" value="product_key" style="text;strokeColor=none;fillColor=none;align=left;verticalAlign=top;spacingLeft=4;spacingRight=4;overflow=hidden;rotatable=0;points=[[0,0.5],[1,0.5]];portConstraint=eastwest;whiteSpace=wrap;html=1;" vertex="1" parent="tXJnp-GCiFo_NJ_1QGvf-1">
          <mxGeometry y="52" width="140" height="26" as="geometry" />
        </mxCell>
        <mxCell id="tXJnp-GCiFo_NJ_1QGvf-4" value="vendor_key" style="text;strokeColor=none;fillColor=none;align=left;verticalAlign=top;spacingLeft=4;spacingRight=4;overflow=hidden;rotatable=0;points=[[0,0.5],[1,0.5]];portConstraint=eastwest;whiteSpace=wrap;html=1;" vertex="1" parent="tXJnp-GCiFo_NJ_1QGvf-1">
          <mxGeometry y="78" width="140" height="26" as="geometry" />
        </mxCell>
        <mxCell id="tXJnp-GCiFo_NJ_1QGvf-11" value="location_key" style="text;strokeColor=none;fillColor=none;align=left;verticalAlign=top;spacingLeft=4;spacingRight=4;overflow=hidden;rotatable=0;points=[[0,0.5],[1,0.5]];portConstraint=eastwest;whiteSpace=wrap;html=1;" vertex="1" parent="tXJnp-GCiFo_NJ_1QGvf-1">
          <mxGeometry y="104" width="140" height="26" as="geometry" />
        </mxCell>
        <mxCell id="tXJnp-GCiFo_NJ_1QGvf-14" value="sales_cost" style="text;strokeColor=none;fillColor=none;align=left;verticalAlign=top;spacingLeft=4;spacingRight=4;overflow=hidden;rotatable=0;points=[[0,0.5],[1,0.5]];portConstraint=eastwest;whiteSpace=wrap;html=1;" vertex="1" parent="tXJnp-GCiFo_NJ_1QGvf-1">
          <mxGeometry y="130" width="140" height="26" as="geometry" />
        </mxCell>
        <mxCell id="tXJnp-GCiFo_NJ_1QGvf-15" value="sales_volume" style="text;strokeColor=none;fillColor=none;align=left;verticalAlign=top;spacingLeft=4;spacingRight=4;overflow=hidden;rotatable=0;points=[[0,0.5],[1,0.5]];portConstraint=eastwest;whiteSpace=wrap;html=1;" vertex="1" parent="tXJnp-GCiFo_NJ_1QGvf-1">
          <mxGeometry y="156" width="140" height="26" as="geometry" />
        </mxCell>
        <mxCell id="tXJnp-GCiFo_NJ_1QGvf-16" value="date" style="swimlane;fontStyle=0;childLayout=stackLayout;horizontal=1;startSize=26;fillColor=none;horizontalStack=0;resizeParent=1;resizeParentMax=0;resizeLast=0;collapsible=1;marginBottom=0;html=1;" vertex="1" parent="1">
          <mxGeometry x="90" y="77" width="140" height="178" as="geometry" />
        </mxCell>
        <mxCell id="tXJnp-GCiFo_NJ_1QGvf-17" value="date_key" style="text;strokeColor=none;fillColor=none;align=left;verticalAlign=top;spacingLeft=4;spacingRight=4;overflow=hidden;rotatable=0;points=[[0,0.5],[1,0.5]];portConstraint=eastwest;whiteSpace=wrap;html=1;" vertex="1" parent="tXJnp-GCiFo_NJ_1QGvf-16">
          <mxGeometry y="26" width="140" height="26" as="geometry" />
        </mxCell>
        <mxCell id="tXJnp-GCiFo_NJ_1QGvf-18" value="day" style="text;strokeColor=none;fillColor=none;align=left;verticalAlign=top;spacingLeft=4;spacingRight=4;overflow=hidden;rotatable=0;points=[[0,0.5],[1,0.5]];portConstraint=eastwest;whiteSpace=wrap;html=1;" vertex="1" parent="tXJnp-GCiFo_NJ_1QGvf-16">
          <mxGeometry y="52" width="140" height="26" as="geometry" />
        </mxCell>
        <mxCell id="tXJnp-GCiFo_NJ_1QGvf-19" value="day_of_week" style="text;strokeColor=none;fillColor=none;align=left;verticalAlign=top;spacingLeft=4;spacingRight=4;overflow=hidden;rotatable=0;points=[[0,0.5],[1,0.5]];portConstraint=eastwest;whiteSpace=wrap;html=1;" vertex="1" parent="tXJnp-GCiFo_NJ_1QGvf-16">
          <mxGeometry y="78" width="140" height="26" as="geometry" />
        </mxCell>
        <mxCell id="tXJnp-GCiFo_NJ_1QGvf-20" value="mouth" style="text;strokeColor=none;fillColor=none;align=left;verticalAlign=top;spacingLeft=4;spacingRight=4;overflow=hidden;rotatable=0;points=[[0,0.5],[1,0.5]];portConstraint=eastwest;whiteSpace=wrap;html=1;" vertex="1" parent="tXJnp-GCiFo_NJ_1QGvf-16">
          <mxGeometry y="104" width="140" height="26" as="geometry" />
        </mxCell>
        <mxCell id="tXJnp-GCiFo_NJ_1QGvf-21" value="quarter" style="text;strokeColor=none;fillColor=none;align=left;verticalAlign=top;spacingLeft=4;spacingRight=4;overflow=hidden;rotatable=0;points=[[0,0.5],[1,0.5]];portConstraint=eastwest;whiteSpace=wrap;html=1;" vertex="1" parent="tXJnp-GCiFo_NJ_1QGvf-16">
          <mxGeometry y="130" width="140" height="26" as="geometry" />
        </mxCell>
        <mxCell id="tXJnp-GCiFo_NJ_1QGvf-23" value="year" style="text;strokeColor=none;fillColor=none;align=left;verticalAlign=top;spacingLeft=4;spacingRight=4;overflow=hidden;rotatable=0;points=[[0,0.5],[1,0.5]];portConstraint=eastwest;whiteSpace=wrap;html=1;" vertex="1" parent="tXJnp-GCiFo_NJ_1QGvf-16">
          <mxGeometry y="156" width="140" height="22" as="geometry" />
        </mxCell>
        <mxCell id="tXJnp-GCiFo_NJ_1QGvf-24" value="product" style="swimlane;fontStyle=0;childLayout=stackLayout;horizontal=1;startSize=26;fillColor=none;horizontalStack=0;resizeParent=1;resizeParentMax=0;resizeLast=0;collapsible=1;marginBottom=0;html=1;" vertex="1" parent="1">
          <mxGeometry x="430" y="77" width="140" height="178" as="geometry" />
        </mxCell>
        <mxCell id="tXJnp-GCiFo_NJ_1QGvf-25" value="product_key" style="text;strokeColor=none;fillColor=none;align=left;verticalAlign=top;spacingLeft=4;spacingRight=4;overflow=hidden;rotatable=0;points=[[0,0.5],[1,0.5]];portConstraint=eastwest;whiteSpace=wrap;html=1;" vertex="1" parent="tXJnp-GCiFo_NJ_1QGvf-24">
          <mxGeometry y="26" width="140" height="26" as="geometry" />
        </mxCell>
        <mxCell id="tXJnp-GCiFo_NJ_1QGvf-26" value="product_name" style="text;strokeColor=none;fillColor=none;align=left;verticalAlign=top;spacingLeft=4;spacingRight=4;overflow=hidden;rotatable=0;points=[[0,0.5],[1,0.5]];portConstraint=eastwest;whiteSpace=wrap;html=1;" vertex="1" parent="tXJnp-GCiFo_NJ_1QGvf-24">
          <mxGeometry y="52" width="140" height="26" as="geometry" />
        </mxCell>
        <mxCell id="tXJnp-GCiFo_NJ_1QGvf-27" value="category" style="text;strokeColor=none;fillColor=none;align=left;verticalAlign=top;spacingLeft=4;spacingRight=4;overflow=hidden;rotatable=0;points=[[0,0.5],[1,0.5]];portConstraint=eastwest;whiteSpace=wrap;html=1;" vertex="1" parent="tXJnp-GCiFo_NJ_1QGvf-24">
          <mxGeometry y="78" width="140" height="26" as="geometry" />
        </mxCell>
        <mxCell id="tXJnp-GCiFo_NJ_1QGvf-28" value="brand" style="text;strokeColor=none;fillColor=none;align=left;verticalAlign=top;spacingLeft=4;spacingRight=4;overflow=hidden;rotatable=0;points=[[0,0.5],[1,0.5]];portConstraint=eastwest;whiteSpace=wrap;html=1;" vertex="1" parent="tXJnp-GCiFo_NJ_1QGvf-24">
          <mxGeometry y="104" width="140" height="26" as="geometry" />
        </mxCell>
        <mxCell id="tXJnp-GCiFo_NJ_1QGvf-29" value="price" style="text;strokeColor=none;fillColor=none;align=left;verticalAlign=top;spacingLeft=4;spacingRight=4;overflow=hidden;rotatable=0;points=[[0,0.5],[1,0.5]];portConstraint=eastwest;whiteSpace=wrap;html=1;" vertex="1" parent="tXJnp-GCiFo_NJ_1QGvf-24">
          <mxGeometry y="130" width="140" height="26" as="geometry" />
        </mxCell>
        <mxCell id="tXJnp-GCiFo_NJ_1QGvf-30" value="stock_num" style="text;strokeColor=none;fillColor=none;align=left;verticalAlign=top;spacingLeft=4;spacingRight=4;overflow=hidden;rotatable=0;points=[[0,0.5],[1,0.5]];portConstraint=eastwest;whiteSpace=wrap;html=1;" vertex="1" parent="tXJnp-GCiFo_NJ_1QGvf-24">
          <mxGeometry y="156" width="140" height="22" as="geometry" />
        </mxCell>
        <mxCell id="tXJnp-GCiFo_NJ_1QGvf-31" value="vendor" style="swimlane;fontStyle=0;childLayout=stackLayout;horizontal=1;startSize=26;fillColor=none;horizontalStack=0;resizeParent=1;resizeParentMax=0;resizeLast=0;collapsible=1;marginBottom=0;html=1;" vertex="1" parent="1">
          <mxGeometry x="90" y="460" width="140" height="130" as="geometry" />
        </mxCell>
        <mxCell id="tXJnp-GCiFo_NJ_1QGvf-32" value="vendor_key" style="text;strokeColor=none;fillColor=none;align=left;verticalAlign=top;spacingLeft=4;spacingRight=4;overflow=hidden;rotatable=0;points=[[0,0.5],[1,0.5]];portConstraint=eastwest;whiteSpace=wrap;html=1;" vertex="1" parent="tXJnp-GCiFo_NJ_1QGvf-31">
          <mxGeometry y="26" width="140" height="26" as="geometry" />
        </mxCell>
        <mxCell id="tXJnp-GCiFo_NJ_1QGvf-33" value="vendor_name" style="text;strokeColor=none;fillColor=none;align=left;verticalAlign=top;spacingLeft=4;spacingRight=4;overflow=hidden;rotatable=0;points=[[0,0.5],[1,0.5]];portConstraint=eastwest;whiteSpace=wrap;html=1;" vertex="1" parent="tXJnp-GCiFo_NJ_1QGvf-31">
          <mxGeometry y="52" width="140" height="26" as="geometry" />
        </mxCell>
        <mxCell id="tXJnp-GCiFo_NJ_1QGvf-35" value="phone_number" style="text;strokeColor=none;fillColor=none;align=left;verticalAlign=top;spacingLeft=4;spacingRight=4;overflow=hidden;rotatable=0;points=[[0,0.5],[1,0.5]];portConstraint=eastwest;whiteSpace=wrap;html=1;" vertex="1" parent="tXJnp-GCiFo_NJ_1QGvf-31">
          <mxGeometry y="78" width="140" height="26" as="geometry" />
        </mxCell>
        <mxCell id="tXJnp-GCiFo_NJ_1QGvf-36" value="address" style="text;strokeColor=none;fillColor=none;align=left;verticalAlign=top;spacingLeft=4;spacingRight=4;overflow=hidden;rotatable=0;points=[[0,0.5],[1,0.5]];portConstraint=eastwest;whiteSpace=wrap;html=1;" vertex="1" parent="tXJnp-GCiFo_NJ_1QGvf-31">
          <mxGeometry y="104" width="140" height="26" as="geometry" />
        </mxCell>
        <mxCell id="tXJnp-GCiFo_NJ_1QGvf-40" value="location" style="swimlane;fontStyle=0;childLayout=stackLayout;horizontal=1;startSize=26;fillColor=none;horizontalStack=0;resizeParent=1;resizeParentMax=0;resizeLast=0;collapsible=1;marginBottom=0;html=1;" vertex="1" parent="1">
          <mxGeometry x="430" y="495" width="140" height="152" as="geometry" />
        </mxCell>
        <mxCell id="tXJnp-GCiFo_NJ_1QGvf-41" value="location_key" style="text;strokeColor=none;fillColor=none;align=left;verticalAlign=top;spacingLeft=4;spacingRight=4;overflow=hidden;rotatable=0;points=[[0,0.5],[1,0.5]];portConstraint=eastwest;whiteSpace=wrap;html=1;" vertex="1" parent="tXJnp-GCiFo_NJ_1QGvf-40">
          <mxGeometry y="26" width="140" height="26" as="geometry" />
        </mxCell>
        <mxCell id="tXJnp-GCiFo_NJ_1QGvf-42" value="street" style="text;strokeColor=none;fillColor=none;align=left;verticalAlign=top;spacingLeft=4;spacingRight=4;overflow=hidden;rotatable=0;points=[[0,0.5],[1,0.5]];portConstraint=eastwest;whiteSpace=wrap;html=1;" vertex="1" parent="tXJnp-GCiFo_NJ_1QGvf-40">
          <mxGeometry y="52" width="140" height="26" as="geometry" />
        </mxCell>
        <mxCell id="tXJnp-GCiFo_NJ_1QGvf-43" value="city" style="text;strokeColor=none;fillColor=none;align=left;verticalAlign=top;spacingLeft=4;spacingRight=4;overflow=hidden;rotatable=0;points=[[0,0.5],[1,0.5]];portConstraint=eastwest;whiteSpace=wrap;html=1;" vertex="1" parent="tXJnp-GCiFo_NJ_1QGvf-40">
          <mxGeometry y="78" width="140" height="26" as="geometry" />
        </mxCell>
        <mxCell id="tXJnp-GCiFo_NJ_1QGvf-44" value="state" style="text;strokeColor=none;fillColor=none;align=left;verticalAlign=top;spacingLeft=4;spacingRight=4;overflow=hidden;rotatable=0;points=[[0,0.5],[1,0.5]];portConstraint=eastwest;whiteSpace=wrap;html=1;" vertex="1" parent="tXJnp-GCiFo_NJ_1QGvf-40">
          <mxGeometry y="104" width="140" height="26" as="geometry" />
        </mxCell>
        <mxCell id="tXJnp-GCiFo_NJ_1QGvf-46" value="country" style="text;strokeColor=none;fillColor=none;align=left;verticalAlign=top;spacingLeft=4;spacingRight=4;overflow=hidden;rotatable=0;points=[[0,0.5],[1,0.5]];portConstraint=eastwest;whiteSpace=wrap;html=1;" vertex="1" parent="tXJnp-GCiFo_NJ_1QGvf-40">
          <mxGeometry y="130" width="140" height="22" as="geometry" />
        </mxCell>
        <mxCell id="tXJnp-GCiFo_NJ_1QGvf-56" style="edgeStyle=orthogonalEdgeStyle;rounded=0;orthogonalLoop=1;jettySize=auto;html=1;exitX=0;exitY=0.5;exitDx=0;exitDy=0;entryX=0.509;entryY=1.027;entryDx=0;entryDy=0;entryPerimeter=0;" edge="1" parent="1" source="tXJnp-GCiFo_NJ_1QGvf-2" target="tXJnp-GCiFo_NJ_1QGvf-23">
          <mxGeometry relative="1" as="geometry" />
        </mxCell>
        <mxCell id="tXJnp-GCiFo_NJ_1QGvf-58" style="edgeStyle=orthogonalEdgeStyle;rounded=0;orthogonalLoop=1;jettySize=auto;html=1;exitX=1;exitY=0.5;exitDx=0;exitDy=0;entryX=0.44;entryY=0.991;entryDx=0;entryDy=0;entryPerimeter=0;" edge="1" parent="1" source="tXJnp-GCiFo_NJ_1QGvf-3" target="tXJnp-GCiFo_NJ_1QGvf-30">
          <mxGeometry relative="1" as="geometry" />
        </mxCell>
        <mxCell id="tXJnp-GCiFo_NJ_1QGvf-61" style="edgeStyle=orthogonalEdgeStyle;rounded=0;orthogonalLoop=1;jettySize=auto;html=1;exitX=0;exitY=0.5;exitDx=0;exitDy=0;entryX=0.5;entryY=0;entryDx=0;entryDy=0;" edge="1" parent="1" source="tXJnp-GCiFo_NJ_1QGvf-4" target="tXJnp-GCiFo_NJ_1QGvf-31">
          <mxGeometry relative="1" as="geometry" />
        </mxCell>
        <mxCell id="tXJnp-GCiFo_NJ_1QGvf-62" style="edgeStyle=orthogonalEdgeStyle;rounded=0;orthogonalLoop=1;jettySize=auto;html=1;exitX=1;exitY=0.5;exitDx=0;exitDy=0;entryX=0.5;entryY=0;entryDx=0;entryDy=0;" edge="1" parent="1" source="tXJnp-GCiFo_NJ_1QGvf-11" target="tXJnp-GCiFo_NJ_1QGvf-40">
          <mxGeometry relative="1" as="geometry" />
        </mxCell>
        <mxCell id="tXJnp-GCiFo_NJ_1QGvf-63" value="Measures" style="rounded=1;whiteSpace=wrap;html=1;" vertex="1" parent="1">
          <mxGeometry x="280" y="490" width="100" height="40" as="geometry" />
        </mxCell>
        <mxCell id="tXJnp-GCiFo_NJ_1QGvf-69" value="" style="endArrow=classic;html=1;rounded=0;exitX=0.471;exitY=1.162;exitDx=0;exitDy=0;exitPerimeter=0;entryX=0.5;entryY=0;entryDx=0;entryDy=0;" edge="1" parent="1" source="tXJnp-GCiFo_NJ_1QGvf-15" target="tXJnp-GCiFo_NJ_1QGvf-63">
          <mxGeometry width="50" height="50" relative="1" as="geometry">
            <mxPoint x="350" y="620" as="sourcePoint" />
            <mxPoint x="400" y="570" as="targetPoint" />
          </mxGeometry>
        </mxCell>
        <mxCell id="tXJnp-GCiFo_NJ_1QGvf-70" value="roll up on location from location_key to city" style="text;html=1;align=center;verticalAlign=middle;resizable=0;points=[];autosize=1;strokeColor=none;fillColor=none;" vertex="1" parent="1">
          <mxGeometry x="30" y="720" width="250" height="30" as="geometry" />
        </mxCell>
        <mxCell id="tXJnp-GCiFo_NJ_1QGvf-71" value="roll up on product from product_key to stock_num" style="text;html=1;align=center;verticalAlign=middle;resizable=0;points=[];autosize=1;strokeColor=none;fillColor=none;" vertex="1" parent="1">
          <mxGeometry x="10" y="780" width="290" height="30" as="geometry" />
        </mxCell>
        <mxCell id="tXJnp-GCiFo_NJ_1QGvf-72" value="roll up on date from date_key to year" style="text;html=1;align=center;verticalAlign=middle;resizable=0;points=[];autosize=1;strokeColor=none;fillColor=none;" vertex="1" parent="1">
          <mxGeometry x="45" y="750" width="220" height="30" as="geometry" />
        </mxCell>
        <mxCell id="tXJnp-GCiFo_NJ_1QGvf-73" value="dice for city=&#39;Los Angeles&#39;" style="text;html=1;align=center;verticalAlign=middle;resizable=0;points=[];autosize=1;strokeColor=none;fillColor=none;" vertex="1" parent="1">
          <mxGeometry x="80" y="810" width="160" height="30" as="geometry" />
        </mxCell>
        <mxCell id="tXJnp-GCiFo_NJ_1QGvf-74" value="优点：在上述的数据仓库结构中，对于离散化的数据列来说使用位图索引有很大优势。例如对于location，假设country有{China,Korea,US}，那么可以方便的根据数据存储为100,010,001这样的bit串，可以提升运算效率，节省空间；&lt;div&gt;缺点：但是对于取值种类非常多&lt;span style=&quot;background-color: initial;&quot;&gt;或者连续数据&lt;/span&gt;&lt;span style=&quot;background-color: initial;&quot;&gt;的数据列，例如city中可能有上千个不同的城市，那么最终的数据存储比特串为1000000...会导致稀疏问题，存储有大量的无意义信息，浪费空间；对于频繁更新的列，使用bitmap还会导致较大的时间开销&lt;/span&gt;&lt;/div&gt;" style="text;html=1;align=center;verticalAlign=middle;resizable=0;points=[];autosize=1;strokeColor=none;fillColor=none;" vertex="1" parent="1">
          <mxGeometry x="-555" y="863" width="1330" height="40" as="geometry" />
        </mxCell>
        <mxCell id="tXJnp-GCiFo_NJ_1QGvf-75" value="weather fact table" style="swimlane;fontStyle=0;childLayout=stackLayout;horizontal=1;startSize=26;fillColor=none;horizontalStack=0;resizeParent=1;resizeParentMax=0;resizeLast=0;collapsible=1;marginBottom=0;html=1;" vertex="1" parent="1">
          <mxGeometry x="-553" y="184" width="140" height="156" as="geometry" />
        </mxCell>
        <mxCell id="tXJnp-GCiFo_NJ_1QGvf-76" value="probe_key" style="text;strokeColor=none;fillColor=none;align=left;verticalAlign=top;spacingLeft=4;spacingRight=4;overflow=hidden;rotatable=0;points=[[0,0.5],[1,0.5]];portConstraint=eastwest;whiteSpace=wrap;html=1;" vertex="1" parent="tXJnp-GCiFo_NJ_1QGvf-75">
          <mxGeometry y="26" width="140" height="26" as="geometry" />
        </mxCell>
        <mxCell id="tXJnp-GCiFo_NJ_1QGvf-77" value="date_key" style="text;strokeColor=none;fillColor=none;align=left;verticalAlign=top;spacingLeft=4;spacingRight=4;overflow=hidden;rotatable=0;points=[[0,0.5],[1,0.5]];portConstraint=eastwest;whiteSpace=wrap;html=1;" vertex="1" parent="tXJnp-GCiFo_NJ_1QGvf-75">
          <mxGeometry y="52" width="140" height="26" as="geometry" />
        </mxCell>
        <mxCell id="tXJnp-GCiFo_NJ_1QGvf-79" value="location_key" style="text;strokeColor=none;fillColor=none;align=left;verticalAlign=top;spacingLeft=4;spacingRight=4;overflow=hidden;rotatable=0;points=[[0,0.5],[1,0.5]];portConstraint=eastwest;whiteSpace=wrap;html=1;" vertex="1" parent="tXJnp-GCiFo_NJ_1QGvf-75">
          <mxGeometry y="78" width="140" height="26" as="geometry" />
        </mxCell>
        <mxCell id="tXJnp-GCiFo_NJ_1QGvf-80" value="temperature" style="text;strokeColor=none;fillColor=none;align=left;verticalAlign=top;spacingLeft=4;spacingRight=4;overflow=hidden;rotatable=0;points=[[0,0.5],[1,0.5]];portConstraint=eastwest;whiteSpace=wrap;html=1;" vertex="1" parent="tXJnp-GCiFo_NJ_1QGvf-75">
          <mxGeometry y="104" width="140" height="26" as="geometry" />
        </mxCell>
        <mxCell id="tXJnp-GCiFo_NJ_1QGvf-81" value="percipitation" style="text;strokeColor=none;fillColor=none;align=left;verticalAlign=top;spacingLeft=4;spacingRight=4;overflow=hidden;rotatable=0;points=[[0,0.5],[1,0.5]];portConstraint=eastwest;whiteSpace=wrap;html=1;" vertex="1" parent="tXJnp-GCiFo_NJ_1QGvf-75">
          <mxGeometry y="130" width="140" height="26" as="geometry" />
        </mxCell>
        <mxCell id="tXJnp-GCiFo_NJ_1QGvf-82" value="probe" style="swimlane;fontStyle=0;childLayout=stackLayout;horizontal=1;startSize=26;fillColor=none;horizontalStack=0;resizeParent=1;resizeParentMax=0;resizeLast=0;collapsible=1;marginBottom=0;html=1;" vertex="1" parent="1">
          <mxGeometry x="-760" y="54" width="140" height="130" as="geometry" />
        </mxCell>
        <mxCell id="tXJnp-GCiFo_NJ_1QGvf-83" value="probe_key" style="text;strokeColor=none;fillColor=none;align=left;verticalAlign=top;spacingLeft=4;spacingRight=4;overflow=hidden;rotatable=0;points=[[0,0.5],[1,0.5]];portConstraint=eastwest;whiteSpace=wrap;html=1;" vertex="1" parent="tXJnp-GCiFo_NJ_1QGvf-82">
          <mxGeometry y="26" width="140" height="26" as="geometry" />
        </mxCell>
        <mxCell id="tXJnp-GCiFo_NJ_1QGvf-84" value="probe_type" style="text;strokeColor=none;fillColor=none;align=left;verticalAlign=top;spacingLeft=4;spacingRight=4;overflow=hidden;rotatable=0;points=[[0,0.5],[1,0.5]];portConstraint=eastwest;whiteSpace=wrap;html=1;" vertex="1" parent="tXJnp-GCiFo_NJ_1QGvf-82">
          <mxGeometry y="52" width="140" height="26" as="geometry" />
        </mxCell>
        <mxCell id="tXJnp-GCiFo_NJ_1QGvf-85" value="status" style="text;strokeColor=none;fillColor=none;align=left;verticalAlign=top;spacingLeft=4;spacingRight=4;overflow=hidden;rotatable=0;points=[[0,0.5],[1,0.5]];portConstraint=eastwest;whiteSpace=wrap;html=1;" vertex="1" parent="tXJnp-GCiFo_NJ_1QGvf-82">
          <mxGeometry y="78" width="140" height="26" as="geometry" />
        </mxCell>
        <mxCell id="tXJnp-GCiFo_NJ_1QGvf-86" value="spec" style="text;strokeColor=none;fillColor=none;align=left;verticalAlign=top;spacingLeft=4;spacingRight=4;overflow=hidden;rotatable=0;points=[[0,0.5],[1,0.5]];portConstraint=eastwest;whiteSpace=wrap;html=1;" vertex="1" parent="tXJnp-GCiFo_NJ_1QGvf-82">
          <mxGeometry y="104" width="140" height="26" as="geometry" />
        </mxCell>
        <mxCell id="tXJnp-GCiFo_NJ_1QGvf-88" value="date" style="swimlane;fontStyle=0;childLayout=stackLayout;horizontal=1;startSize=26;fillColor=none;horizontalStack=0;resizeParent=1;resizeParentMax=0;resizeLast=0;collapsible=1;marginBottom=0;html=1;" vertex="1" parent="1">
          <mxGeometry x="-350" y="210" width="140" height="208" as="geometry" />
        </mxCell>
        <mxCell id="tXJnp-GCiFo_NJ_1QGvf-89" value="date_key" style="text;strokeColor=none;fillColor=none;align=left;verticalAlign=top;spacingLeft=4;spacingRight=4;overflow=hidden;rotatable=0;points=[[0,0.5],[1,0.5]];portConstraint=eastwest;whiteSpace=wrap;html=1;" vertex="1" parent="tXJnp-GCiFo_NJ_1QGvf-88">
          <mxGeometry y="26" width="140" height="26" as="geometry" />
        </mxCell>
        <mxCell id="tXJnp-GCiFo_NJ_1QGvf-90" value="hour" style="text;strokeColor=none;fillColor=none;align=left;verticalAlign=top;spacingLeft=4;spacingRight=4;overflow=hidden;rotatable=0;points=[[0,0.5],[1,0.5]];portConstraint=eastwest;whiteSpace=wrap;html=1;" vertex="1" parent="tXJnp-GCiFo_NJ_1QGvf-88">
          <mxGeometry y="52" width="140" height="26" as="geometry" />
        </mxCell>
        <mxCell id="tXJnp-GCiFo_NJ_1QGvf-91" value="day" style="text;strokeColor=none;fillColor=none;align=left;verticalAlign=top;spacingLeft=4;spacingRight=4;overflow=hidden;rotatable=0;points=[[0,0.5],[1,0.5]];portConstraint=eastwest;whiteSpace=wrap;html=1;" vertex="1" parent="tXJnp-GCiFo_NJ_1QGvf-88">
          <mxGeometry y="78" width="140" height="26" as="geometry" />
        </mxCell>
        <mxCell id="tXJnp-GCiFo_NJ_1QGvf-92" value="day_of_week" style="text;strokeColor=none;fillColor=none;align=left;verticalAlign=top;spacingLeft=4;spacingRight=4;overflow=hidden;rotatable=0;points=[[0,0.5],[1,0.5]];portConstraint=eastwest;whiteSpace=wrap;html=1;" vertex="1" parent="tXJnp-GCiFo_NJ_1QGvf-88">
          <mxGeometry y="104" width="140" height="26" as="geometry" />
        </mxCell>
        <mxCell id="tXJnp-GCiFo_NJ_1QGvf-93" value="mouth" style="text;strokeColor=none;fillColor=none;align=left;verticalAlign=top;spacingLeft=4;spacingRight=4;overflow=hidden;rotatable=0;points=[[0,0.5],[1,0.5]];portConstraint=eastwest;whiteSpace=wrap;html=1;" vertex="1" parent="tXJnp-GCiFo_NJ_1QGvf-88">
          <mxGeometry y="130" width="140" height="26" as="geometry" />
        </mxCell>
        <mxCell id="tXJnp-GCiFo_NJ_1QGvf-94" value="quarter" style="text;strokeColor=none;fillColor=none;align=left;verticalAlign=top;spacingLeft=4;spacingRight=4;overflow=hidden;rotatable=0;points=[[0,0.5],[1,0.5]];portConstraint=eastwest;whiteSpace=wrap;html=1;" vertex="1" parent="tXJnp-GCiFo_NJ_1QGvf-88">
          <mxGeometry y="156" width="140" height="26" as="geometry" />
        </mxCell>
        <mxCell id="tXJnp-GCiFo_NJ_1QGvf-95" value="year" style="text;strokeColor=none;fillColor=none;align=left;verticalAlign=top;spacingLeft=4;spacingRight=4;overflow=hidden;rotatable=0;points=[[0,0.5],[1,0.5]];portConstraint=eastwest;whiteSpace=wrap;html=1;" vertex="1" parent="tXJnp-GCiFo_NJ_1QGvf-88">
          <mxGeometry y="182" width="140" height="26" as="geometry" />
        </mxCell>
        <mxCell id="tXJnp-GCiFo_NJ_1QGvf-96" value="location" style="swimlane;fontStyle=0;childLayout=stackLayout;horizontal=1;startSize=26;fillColor=none;horizontalStack=0;resizeParent=1;resizeParentMax=0;resizeLast=0;collapsible=1;marginBottom=0;html=1;" vertex="1" parent="1">
          <mxGeometry x="-760" y="281" width="140" height="156" as="geometry" />
        </mxCell>
        <mxCell id="tXJnp-GCiFo_NJ_1QGvf-97" value="location_key" style="text;strokeColor=none;fillColor=none;align=left;verticalAlign=top;spacingLeft=4;spacingRight=4;overflow=hidden;rotatable=0;points=[[0,0.5],[1,0.5]];portConstraint=eastwest;whiteSpace=wrap;html=1;" vertex="1" parent="tXJnp-GCiFo_NJ_1QGvf-96">
          <mxGeometry y="26" width="140" height="26" as="geometry" />
        </mxCell>
        <mxCell id="tXJnp-GCiFo_NJ_1QGvf-98" value="land_or_ocean" style="text;strokeColor=none;fillColor=none;align=left;verticalAlign=top;spacingLeft=4;spacingRight=4;overflow=hidden;rotatable=0;points=[[0,0.5],[1,0.5]];portConstraint=eastwest;whiteSpace=wrap;html=1;" vertex="1" parent="tXJnp-GCiFo_NJ_1QGvf-96">
          <mxGeometry y="52" width="140" height="26" as="geometry" />
        </mxCell>
        <mxCell id="tXJnp-GCiFo_NJ_1QGvf-99" value="latitude" style="text;strokeColor=none;fillColor=none;align=left;verticalAlign=top;spacingLeft=4;spacingRight=4;overflow=hidden;rotatable=0;points=[[0,0.5],[1,0.5]];portConstraint=eastwest;whiteSpace=wrap;html=1;" vertex="1" parent="tXJnp-GCiFo_NJ_1QGvf-96">
          <mxGeometry y="78" width="140" height="26" as="geometry" />
        </mxCell>
        <mxCell id="tXJnp-GCiFo_NJ_1QGvf-100" value="longitude" style="text;strokeColor=none;fillColor=none;align=left;verticalAlign=top;spacingLeft=4;spacingRight=4;overflow=hidden;rotatable=0;points=[[0,0.5],[1,0.5]];portConstraint=eastwest;whiteSpace=wrap;html=1;" vertex="1" parent="tXJnp-GCiFo_NJ_1QGvf-96">
          <mxGeometry y="104" width="140" height="26" as="geometry" />
        </mxCell>
        <mxCell id="tXJnp-GCiFo_NJ_1QGvf-101" value="region" style="text;strokeColor=none;fillColor=none;align=left;verticalAlign=top;spacingLeft=4;spacingRight=4;overflow=hidden;rotatable=0;points=[[0,0.5],[1,0.5]];portConstraint=eastwest;whiteSpace=wrap;html=1;" vertex="1" parent="tXJnp-GCiFo_NJ_1QGvf-96">
          <mxGeometry y="130" width="140" height="26" as="geometry" />
        </mxCell>
        <mxCell id="tXJnp-GCiFo_NJ_1QGvf-104" value="" style="endArrow=classic;html=1;rounded=0;entryX=1;entryY=0.5;entryDx=0;entryDy=0;exitX=0;exitY=0.5;exitDx=0;exitDy=0;" edge="1" parent="1" source="tXJnp-GCiFo_NJ_1QGvf-79" target="tXJnp-GCiFo_NJ_1QGvf-99">
          <mxGeometry width="50" height="50" relative="1" as="geometry">
            <mxPoint x="-650" y="500" as="sourcePoint" />
            <mxPoint x="-600" y="450" as="targetPoint" />
          </mxGeometry>
        </mxCell>
        <mxCell id="tXJnp-GCiFo_NJ_1QGvf-107" value="" style="endArrow=classic;html=1;rounded=0;entryX=1;entryY=0.5;entryDx=0;entryDy=0;exitX=0;exitY=0.5;exitDx=0;exitDy=0;" edge="1" parent="1" source="tXJnp-GCiFo_NJ_1QGvf-76" target="tXJnp-GCiFo_NJ_1QGvf-83">
          <mxGeometry width="50" height="50" relative="1" as="geometry">
            <mxPoint x="-510" y="120" as="sourcePoint" />
            <mxPoint x="-460" y="70" as="targetPoint" />
          </mxGeometry>
        </mxCell>
        <mxCell id="tXJnp-GCiFo_NJ_1QGvf-108" value="" style="endArrow=classic;html=1;rounded=0;exitX=1;exitY=0.5;exitDx=0;exitDy=0;entryX=0;entryY=0.5;entryDx=0;entryDy=0;" edge="1" parent="1" source="tXJnp-GCiFo_NJ_1QGvf-77" target="tXJnp-GCiFo_NJ_1QGvf-89">
          <mxGeometry width="50" height="50" relative="1" as="geometry">
            <mxPoint x="-590" y="540" as="sourcePoint" />
            <mxPoint x="-540" y="490" as="targetPoint" />
          </mxGeometry>
        </mxCell>
      </root>
    </mxGraphModel>
  </diagram>
</mxfile>
